<svg width="149" height="44" viewBox="0 0 149 44" fill="none" xmlns="http://www.w3.org/2000/svg">
<path d="M143.217 44H5.2019C2.3342 44 0 41.6592 0 38.7937V5.1986C0 2.332 2.3342 0 5.2019 0H143.217C146.083 0 148.5 2.332 148.5 5.1986V38.7937C148.5 41.6592 146.083 44 143.217 44Z" fill="#A6A6A6"/>
<path d="M147.435 38.7948C147.435 41.1224 145.55 43.0078 143.218 43.0078H5.20178C2.87088 43.0078 0.978882 41.1224 0.978882 38.7948V5.1975C0.978882 2.871 2.87088 0.979004 5.20178 0.979004H143.217C145.55 0.979004 147.434 2.871 147.434 5.1975L147.435 38.7948Z" fill="black"/>
<path d="M33.1408 21.7624C33.1089 18.2171 36.0436 16.4923 36.1779 16.412C34.5158 13.9887 31.9396 13.6576 31.0343 13.6312C28.8705 13.4035 26.7718 14.9259 25.6696 14.9259C24.5454 14.9259 22.8481 13.6532 21.0188 13.6906C18.6647 13.7269 16.4626 15.0898 15.2548 17.2062C12.7622 21.5215 14.6212 27.863 17.0093 31.3511C18.2039 33.0594 19.5998 34.9668 21.4269 34.8997C23.2144 34.826 23.8821 33.7601 26.0392 33.7601C28.1765 33.7601 28.8034 34.8997 30.6668 34.8568C32.5853 34.826 33.793 33.1408 34.9459 31.4171C36.3263 29.4591 36.8808 27.5308 36.9028 27.4318C36.8577 27.4164 33.1771 26.0117 33.1408 21.7624Z" fill="white"/>
<path d="M29.6208 11.3366C30.5822 10.1343 31.24 8.49861 31.0574 6.83871C29.6659 6.90031 27.9257 7.80121 26.9236 8.97711C26.037 10.0133 25.245 11.7117 25.4496 13.3089C27.0127 13.4255 28.6176 12.5202 29.6208 11.3366Z" fill="white"/>
<path d="M59.0095 34.6544H56.5114L55.143 30.3545H50.3866L49.0831 34.6544H46.651L51.3634 20.0156H54.274L59.0095 34.6544ZM54.7305 28.5505L53.493 24.728C53.3621 24.3375 53.1168 23.4179 52.7549 21.9703H52.7109C52.5668 22.5929 52.3347 23.5125 52.0157 24.728L50.8002 28.5505H54.7305Z" fill="white"/>
<path d="M71.1281 29.2468C71.1281 31.042 70.643 32.461 69.6728 33.5027C68.8038 34.43 67.7247 34.8931 66.4366 34.8931C65.0462 34.8931 64.0474 34.3937 63.4391 33.3949H63.3951V38.9554H61.0499V27.5737C61.0499 26.4451 61.0202 25.2868 60.963 24.0988H63.0255L63.1564 25.7719H63.2004C63.9825 24.5113 65.1694 23.8821 66.7622 23.8821C68.0074 23.8821 69.0469 24.3738 69.8785 25.3583C70.7123 26.3439 71.1281 27.6397 71.1281 29.2468ZM68.7389 29.3326C68.7389 28.3052 68.5079 27.4582 68.0437 26.7916C67.5366 26.0964 66.8557 25.7488 66.0021 25.7488C65.4235 25.7488 64.8977 25.9424 64.428 26.3241C63.9572 26.7091 63.6492 27.2118 63.5051 27.8344C63.4325 28.1248 63.3962 28.3624 63.3962 28.5494V30.3094C63.3962 31.0772 63.6316 31.7251 64.1024 32.2542C64.5732 32.7833 65.1848 33.0473 65.9372 33.0473C66.8205 33.0473 67.508 32.7063 67.9997 32.0265C68.4925 31.3456 68.7389 30.448 68.7389 29.3326Z" fill="white"/>
<path d="M83.269 29.2468C83.269 31.042 82.7839 32.461 81.8126 33.5027C80.9447 34.43 79.8656 34.8931 78.5775 34.8931C77.1871 34.8931 76.1883 34.3937 75.5811 33.3949H75.5371V38.9554H73.1919V27.5737C73.1919 26.4451 73.1622 25.2868 73.105 24.0988H75.1675L75.2984 25.7719H75.3424C76.1234 24.5113 77.3103 23.8821 78.9042 23.8821C80.1483 23.8821 81.1878 24.3738 82.0216 25.3583C82.8521 26.3439 83.269 27.6397 83.269 29.2468ZM80.8798 29.3326C80.8798 28.3052 80.6477 27.4582 80.1835 26.7916C79.6764 26.0964 78.9977 25.7488 78.143 25.7488C77.5633 25.7488 77.0386 25.9424 76.5678 26.3241C76.097 26.7091 75.7901 27.2118 75.646 27.8344C75.5745 28.1248 75.5371 28.3624 75.5371 28.5494V30.3094C75.5371 31.0772 75.7725 31.7251 76.2411 32.2542C76.7119 32.7822 77.3235 33.0473 78.0781 33.0473C78.9614 33.0473 79.6489 32.7063 80.1406 32.0265C80.6334 31.3456 80.8798 30.448 80.8798 29.3326Z" fill="white"/>
<path d="M96.8429 30.5492C96.8429 31.7944 96.4106 32.8075 95.5427 33.5896C94.589 34.4443 93.2613 34.8711 91.5552 34.8711C89.98 34.8711 88.7172 34.5675 87.7613 33.9592L88.3047 32.0045C89.3343 32.6271 90.464 32.9395 91.6949 32.9395C92.5782 32.9395 93.2657 32.7393 93.7596 32.3411C94.2513 31.9429 94.4966 31.4083 94.4966 30.7417C94.4966 30.1477 94.2942 29.6472 93.8883 29.2413C93.4846 28.8354 92.8103 28.4581 91.8687 28.1094C89.3057 27.1535 88.0253 25.7532 88.0253 23.9118C88.0253 22.7084 88.4741 21.7217 89.3728 20.9539C90.2682 20.185 91.4628 19.8011 92.9566 19.8011C94.2887 19.8011 95.3953 20.0332 96.2786 20.4963L95.6923 22.4081C94.8673 21.9593 93.9345 21.7349 92.8906 21.7349C92.0656 21.7349 91.421 21.9384 90.959 22.3432C90.5685 22.7051 90.3727 23.1462 90.3727 23.6687C90.3727 24.2473 90.596 24.7258 91.0448 25.102C91.4353 25.4496 92.1448 25.8258 93.1744 26.2317C94.4339 26.7388 95.359 27.3317 95.9541 28.0115C96.547 28.6891 96.8429 29.5372 96.8429 30.5492Z" fill="white"/>
<path d="M104.597 25.8588H102.012V30.9837C102.012 32.2872 102.467 32.9384 103.38 32.9384C103.799 32.9384 104.147 32.9021 104.422 32.8295L104.487 34.6104C104.025 34.7831 103.417 34.87 102.663 34.87C101.737 34.87 101.013 34.5873 100.491 34.023C99.9703 33.4576 99.7085 32.5094 99.7085 31.1773V25.8566H98.1685V24.0966H99.7085V22.1639L102.012 21.4687V24.0966H104.597V25.8588Z" fill="white"/>
<path d="M116.26 29.2897C116.26 30.9122 115.796 32.2443 114.87 33.286C113.898 34.3585 112.609 34.8931 111.002 34.8931C109.453 34.8931 108.22 34.3794 107.301 33.352C106.381 32.3246 105.921 31.0277 105.921 29.4646C105.921 27.8289 106.394 26.4891 107.343 25.4474C108.291 24.4046 109.569 23.8832 111.176 23.8832C112.725 23.8832 113.971 24.3969 114.911 25.4254C115.811 26.4231 116.26 27.7112 116.26 29.2897ZM113.827 29.3656C113.827 28.3921 113.619 27.5572 113.198 26.8609C112.706 26.0183 112.003 25.5981 111.092 25.5981C110.15 25.5981 109.433 26.0194 108.942 26.8609C108.52 27.5583 108.313 28.4064 108.313 29.4096C108.313 30.3831 108.52 31.218 108.942 31.9132C109.449 32.7558 110.157 33.176 111.071 33.176C111.967 33.176 112.67 32.747 113.177 31.8912C113.609 31.1817 113.827 30.338 113.827 29.3656Z" fill="white"/>
<path d="M123.883 26.1613C123.651 26.1184 123.404 26.0964 123.144 26.0964C122.319 26.0964 121.681 26.4077 121.232 27.0314C120.842 27.5814 120.646 28.2766 120.646 29.1159V34.6544H118.302L118.324 27.423C118.324 26.2064 118.294 25.0987 118.236 24.0999H120.278L120.364 26.1195H120.429C120.677 25.4254 121.067 24.8666 121.602 24.4475C122.124 24.0702 122.689 23.8821 123.297 23.8821C123.514 23.8821 123.709 23.8975 123.883 23.925V26.1613Z" fill="white"/>
<path d="M134.372 28.8772C134.372 29.2974 134.344 29.6516 134.286 29.9409H127.25C127.278 30.9837 127.618 31.7812 128.271 32.3312C128.864 32.8229 129.631 33.0693 130.572 33.0693C131.614 33.0693 132.564 32.9032 133.419 32.5699L133.787 34.1979C132.788 34.6335 131.609 34.8502 130.248 34.8502C128.611 34.8502 127.326 34.3684 126.391 33.4059C125.458 32.4434 124.991 31.1509 124.991 29.5295C124.991 27.9378 125.425 26.6123 126.296 25.5552C127.206 24.4266 128.437 23.8623 129.986 23.8623C131.507 23.8623 132.659 24.4266 133.441 25.5552C134.06 26.4517 134.372 27.5605 134.372 28.8772ZM132.135 28.2689C132.151 27.5737 131.998 26.9731 131.68 26.466C131.274 25.8137 130.65 25.4881 129.811 25.4881C129.044 25.4881 128.421 25.806 127.944 26.444C127.554 26.9511 127.322 27.5594 127.25 28.2678H132.135V28.2689Z" fill="white"/>
<path d="M53.9549 11.0099C53.9549 12.3046 53.5666 13.2792 52.7911 13.9337C52.0728 14.5376 51.052 14.8401 49.7298 14.8401C49.0742 14.8401 48.5132 14.8115 48.0435 14.7543V7.68021C48.6562 7.58121 49.3162 7.53061 50.029 7.53061C51.2885 7.53061 52.2378 7.80451 52.878 8.35231C53.5952 8.97161 53.9549 9.85711 53.9549 11.0099ZM52.7394 11.0418C52.7394 10.2025 52.5172 9.55901 52.0728 9.11021C51.6284 8.66251 50.9794 8.43811 50.1247 8.43811C49.7617 8.43811 49.4526 8.46231 49.1963 8.51291V13.8908C49.3382 13.9128 49.5978 13.9227 49.9751 13.9227C50.8573 13.9227 51.5382 13.6774 52.0178 13.1868C52.4974 12.6962 52.7394 11.9812 52.7394 11.0418Z" fill="white"/>
<path d="M60.3997 12.1407C60.3997 12.9382 60.172 13.5916 59.7166 14.1042C59.2392 14.6311 58.6067 14.894 57.8169 14.894C57.0557 14.894 56.4496 14.6421 55.9975 14.1361C55.5465 13.6312 55.321 12.9943 55.321 12.2265C55.321 11.4235 55.5531 10.7646 56.0195 10.2531C56.4859 9.74162 57.1129 9.48532 57.9027 9.48532C58.6639 9.48532 59.2755 9.73722 59.7386 10.2421C60.1786 10.7327 60.3997 11.3663 60.3997 12.1407ZM59.204 12.1781C59.204 11.6996 59.1006 11.2893 58.8949 10.9472C58.6529 10.5336 58.3086 10.3268 57.8609 10.3268C57.3978 10.3268 57.0458 10.5336 56.8038 10.9472C56.597 11.2893 56.4947 11.7062 56.4947 12.199C56.4947 12.6775 56.5981 13.0878 56.8038 13.4299C57.0535 13.8435 57.4011 14.0503 57.8499 14.0503C58.2899 14.0503 58.6353 13.8402 58.8839 13.4189C59.0973 13.0702 59.204 12.6566 59.204 12.1781Z" fill="white"/>
<path d="M69.0412 9.59091L67.4187 14.7763H66.3627L65.6906 12.5246C65.5201 11.9625 65.3815 11.4037 65.2737 10.8493H65.2528C65.1527 11.4191 65.0141 11.9768 64.8359 12.5246L64.122 14.7763H63.0539L61.5282 9.59091H62.7129L63.2992 12.056C63.4411 12.639 63.5577 13.1945 63.6512 13.7203H63.6721C63.7579 13.2869 63.8998 12.7347 64.1 12.067L64.8359 9.59201H65.7753L66.4804 12.0142C66.6509 12.6049 66.7895 13.1736 66.8962 13.7214H66.9281C67.0062 13.1879 67.1239 12.6192 67.2801 12.0142L67.9093 9.59201H69.0412V9.59091Z" fill="white"/>
<path d="M75.0177 14.7763H73.8649V11.8063C73.8649 10.8911 73.5173 10.4335 72.8199 10.4335C72.4778 10.4335 72.2017 10.5589 71.9872 10.8108C71.7749 11.0627 71.6671 11.3597 71.6671 11.6996V14.7752H70.5143V11.0726C70.5143 10.6172 70.5 10.1233 70.4725 9.58873H71.4856L71.5395 10.3994H71.5714C71.7056 10.1475 71.9058 9.93963 72.1687 9.77353C72.4811 9.57993 72.8309 9.48203 73.2137 9.48203C73.6977 9.48203 74.1003 9.63823 74.4204 9.95173C74.8186 10.3356 75.0177 10.9087 75.0177 11.6699V14.7763Z" fill="white"/>
<path d="M78.1967 14.7763H77.045V7.21161H78.1967V14.7763Z" fill="white"/>
<path d="M84.9837 12.1407C84.9837 12.9382 84.756 13.5916 84.3006 14.1042C83.8232 14.6311 83.1896 14.894 82.4009 14.894C81.6386 14.894 81.0325 14.6421 80.5815 14.1361C80.1305 13.6312 79.905 12.9943 79.905 12.2265C79.905 11.4235 80.1371 10.7646 80.6035 10.2531C81.0699 9.74162 81.6969 9.48532 82.4856 9.48532C83.2479 9.48532 83.8584 9.73722 84.3226 10.2421C84.7626 10.7327 84.9837 11.3663 84.9837 12.1407ZM83.7869 12.1781C83.7869 11.6996 83.6835 11.2893 83.4778 10.9472C83.2369 10.5336 82.8915 10.3268 82.4449 10.3268C81.9807 10.3268 81.6287 10.5336 81.3878 10.9472C81.181 11.2893 81.0787 11.7062 81.0787 12.199C81.0787 12.6775 81.1821 13.0878 81.3878 13.4299C81.6375 13.8435 81.9851 14.0503 82.4339 14.0503C82.8739 14.0503 83.2182 13.8402 83.4668 13.4189C83.6813 13.0702 83.7869 12.6566 83.7869 12.1781Z" fill="white"/>
<path d="M90.5629 14.7763H89.5277L89.4419 14.179H89.41C89.0558 14.6553 88.5509 14.894 87.8953 14.894C87.4058 14.894 87.0099 14.7367 86.7118 14.4243C86.4412 14.1405 86.3058 13.7874 86.3058 13.3683C86.3058 12.7347 86.5698 12.2518 87.1011 11.9174C87.6313 11.583 88.3772 11.4191 89.3375 11.4268V11.33C89.3375 10.6469 88.9788 10.3059 88.2605 10.3059C87.749 10.3059 87.2981 10.4346 86.9087 10.6898L86.6743 9.93302C87.1561 9.63492 87.7513 9.48532 88.4531 9.48532C89.8083 9.48532 90.488 10.2003 90.488 11.6303V13.5399C90.488 14.058 90.5134 14.4705 90.5629 14.7763ZM89.366 12.9943V12.1946C88.0944 12.1726 87.4587 12.5213 87.4587 13.2396C87.4587 13.5102 87.5312 13.7126 87.6797 13.8479C87.8282 13.9832 88.0174 14.0503 88.2429 14.0503C88.4959 14.0503 88.7324 13.97 88.948 13.8105C89.1647 13.6499 89.2978 13.4464 89.3473 13.1967C89.3594 13.1406 89.366 13.0724 89.366 12.9943Z" fill="white"/>
<path d="M97.1133 14.7763H96.0903L96.0364 13.9436H96.0045C95.6778 14.5772 95.1212 14.894 94.3391 14.894C93.7143 14.894 93.194 14.6487 92.7815 14.1581C92.369 13.6675 92.1633 13.0306 92.1633 12.2485C92.1633 11.4092 92.3866 10.7294 92.8354 10.2102C93.2699 9.72621 93.8023 9.48421 94.4359 9.48421C95.1322 9.48421 95.6195 9.71851 95.8967 10.1882H95.9187V7.21161H97.0726V13.3793C97.0726 13.8842 97.0858 14.3495 97.1133 14.7763ZM95.9187 12.5895V11.7249C95.9187 11.5753 95.9077 11.4543 95.8868 11.3619C95.8219 11.0847 95.6822 10.8515 95.4699 10.6634C95.2554 10.4753 94.9969 10.3807 94.6988 10.3807C94.2687 10.3807 93.9321 10.5512 93.6846 10.8933C93.4393 11.2354 93.315 11.6721 93.315 12.2056C93.315 12.7182 93.4327 13.134 93.6692 13.4541C93.9189 13.7951 94.2555 13.9656 94.6768 13.9656C95.0552 13.9656 95.3577 13.8237 95.5876 13.5388C95.8098 13.2759 95.9187 12.9591 95.9187 12.5895Z" fill="white"/>
<path d="M106.973 12.1407C106.973 12.9382 106.745 13.5916 106.29 14.1042C105.812 14.6311 105.181 14.894 104.39 14.894C103.63 14.894 103.024 14.6421 102.571 14.1361C102.12 13.6312 101.894 12.9943 101.894 12.2265C101.894 11.4235 102.126 10.7646 102.593 10.2531C103.059 9.74162 103.686 9.48532 104.477 9.48532C105.237 9.48532 105.85 9.73722 106.312 10.2421C106.752 10.7327 106.973 11.3663 106.973 12.1407ZM105.778 12.1781C105.778 11.6996 105.675 11.2893 105.469 10.9472C105.226 10.5336 104.883 10.3268 104.434 10.3268C103.972 10.3268 103.62 10.5336 103.377 10.9472C103.17 11.2893 103.068 11.7062 103.068 12.199C103.068 12.6775 103.171 13.0878 103.377 13.4299C103.627 13.8435 103.974 14.0503 104.423 14.0503C104.863 14.0503 105.209 13.8402 105.458 13.4189C105.67 13.0702 105.778 12.6566 105.778 12.1781Z" fill="white"/>
<path d="M113.171 14.7763H112.02V11.8063C112.02 10.8911 111.672 10.4335 110.973 10.4335C110.631 10.4335 110.355 10.5589 110.142 10.8108C109.928 11.0627 109.822 11.3597 109.822 11.6996V14.7752H108.668V11.0726C108.668 10.6172 108.655 10.1233 108.627 9.58873H109.639L109.693 10.3994H109.725C109.86 10.1475 110.06 9.93963 110.322 9.77353C110.636 9.57993 110.984 9.48203 111.368 9.48203C111.851 9.48203 112.254 9.63823 112.574 9.95173C112.973 10.3356 113.171 10.9087 113.171 11.6699V14.7763Z" fill="white"/>
<path d="M120.929 10.4544H119.66V12.9734C119.66 13.6136 119.885 13.9337 120.332 13.9337C120.539 13.9337 120.71 13.9161 120.846 13.8798L120.875 14.7543C120.648 14.8401 120.349 14.883 119.98 14.883C119.525 14.883 119.17 14.7444 118.914 14.4672C118.657 14.19 118.529 13.7236 118.529 13.0691V10.4544H117.771V9.5909H118.529V8.6405L119.659 8.2995V9.5898H120.928V10.4544H120.929Z" fill="white"/>
<path d="M127.032 14.7763H125.878V11.8283C125.878 10.8988 125.531 10.4335 124.835 10.4335C124.3 10.4335 123.935 10.703 123.735 11.242C123.7 11.3553 123.681 11.4939 123.681 11.6567V14.7752H122.529V7.21161H123.681V10.3367H123.703C124.066 9.76801 124.586 9.48421 125.26 9.48421C125.738 9.48421 126.133 9.64041 126.446 9.95391C126.837 10.3444 127.032 10.9252 127.032 11.693V14.7763Z" fill="white"/>
<path d="M133.328 11.9383C133.328 12.1451 133.312 12.3189 133.285 12.4608H129.827C129.843 12.9734 130.008 13.3639 130.328 13.6345C130.621 13.8765 130.998 13.9975 131.46 13.9975C131.971 13.9975 132.438 13.9161 132.858 13.7522L133.038 14.553C132.547 14.7664 131.968 14.8731 131.298 14.8731C130.495 14.8731 129.863 14.6366 129.405 14.1636C128.945 13.6906 128.718 13.0559 128.718 12.2595C128.718 11.4774 128.93 10.8262 129.358 10.307C129.804 9.75263 130.408 9.47543 131.171 9.47543C131.916 9.47543 132.483 9.75263 132.866 10.307C133.175 10.747 133.328 11.2915 133.328 11.9383ZM132.228 11.6402C132.236 11.2981 132.161 11.0033 132.004 10.7547C131.804 10.4346 131.499 10.274 131.087 10.274C130.711 10.274 130.404 10.4302 130.17 10.7437C129.978 10.9934 129.865 11.2915 129.827 11.6402H132.228Z" fill="white"/>
</svg>
