<svg width="150" height="45" viewBox="0 0 150 45" fill="none" xmlns="http://www.w3.org/2000/svg">
<path d="M144.299 44.3996H5.54996C2.49748 44.3996 0 41.9021 0 38.8496V5.54989C0 2.49742 2.49748 -6.48499e-05 5.54996 -6.48499e-05H144.299C147.351 -6.48499e-05 149.849 2.49742 149.849 5.54989V38.8496C149.849 41.9021 147.351 44.3996 144.299 44.3996Z" fill="black"/>
<path d="M144.299 0.000209808H5.54996C2.49748 0.000209808 0 2.49769 0 5.55017V38.8499C0 41.9024 2.49748 44.3999 5.54996 44.3999H144.299C147.351 44.3999 149.849 41.9024 149.849 38.8499V5.55017C149.849 2.49769 147.351 0.000209808 144.299 0.000209808ZM144.299 0.888203C146.87 0.888203 148.961 2.97943 148.961 5.55017V38.8499C148.961 41.4207 146.87 43.5119 144.299 43.5119H5.54996C2.97922 43.5119 0.887997 41.4207 0.887997 38.8499V5.55017C0.887997 2.97943 2.97922 0.888203 5.54996 0.888203H144.299Z" fill="#A6A6A6"/>
<path d="M118.698 33.2998H120.769V19.4238H118.698V33.2998ZM137.353 24.4221L134.979 30.4383H134.908L132.444 24.4221H130.213L133.908 32.8303L131.802 37.5078H133.961L139.657 24.4221H137.353ZM125.608 31.7236C124.928 31.7236 123.982 31.3851 123.982 30.5448C123.982 29.4748 125.16 29.0641 126.178 29.0641C127.088 29.0641 127.518 29.2606 128.071 29.5281C127.91 30.8135 126.803 31.7236 125.608 31.7236ZM125.857 24.1191C124.358 24.1191 122.804 24.7795 122.162 26.2436L124 27.0106C124.393 26.2436 125.125 25.9928 125.893 25.9928C126.964 25.9928 128.053 26.6354 128.071 27.7787V27.9208C127.695 27.7066 126.893 27.3858 125.911 27.3858C123.929 27.3858 121.911 28.4747 121.911 30.5093C121.911 32.3663 123.536 33.5629 125.357 33.5629C126.75 33.5629 127.518 32.938 128 32.2054H128.071V33.2765H130.07V27.9563C130.07 25.4933 128.232 24.1191 125.857 24.1191ZM113.057 26.1115H110.111V21.3552H113.057C114.605 21.3552 115.484 22.6373 115.484 23.7328C115.484 24.8084 114.605 26.1115 113.057 26.1115ZM113.004 19.4238H108.041V33.2998H110.111V28.0429H113.004C115.299 28.0429 117.556 26.3801 117.556 23.7328C117.556 21.0855 115.299 19.4238 113.004 19.4238ZM85.9409 31.7259C84.5101 31.7259 83.3124 30.5282 83.3124 28.8832C83.3124 27.2204 84.5101 26.0039 85.9409 26.0039C87.3539 26.0039 88.4617 27.2204 88.4617 28.8832C88.4617 30.5282 87.3539 31.7259 85.9409 31.7259ZM88.3196 25.1991H88.2474C87.7823 24.6452 86.8888 24.1446 85.7622 24.1446C83.4012 24.1446 81.2378 26.2181 81.2378 28.8832C81.2378 31.5294 83.4012 33.5862 85.7622 33.5862C86.8888 33.5862 87.7823 33.0856 88.2474 32.5128H88.3196V33.1933C88.3196 34.9992 87.3539 35.9649 85.7977 35.9649C84.5278 35.9649 83.7409 35.0525 83.419 34.2833L81.613 35.0347C82.1314 36.2868 83.5089 37.8242 85.7977 37.8242C88.2297 37.8242 90.2865 36.3934 90.2865 32.9069V24.4299H88.3196V25.1991ZM91.7173 33.2998H93.7918V19.4227H91.7173V33.2998ZM96.8488 28.7222C96.7955 26.8985 98.2618 25.9683 99.3163 25.9683C100.14 25.9683 100.837 26.379 101.069 26.9696L96.8488 28.7222ZM103.287 27.1483C102.894 26.0938 101.695 24.1446 99.2452 24.1446C96.8132 24.1446 94.7931 26.0571 94.7931 28.8654C94.7931 31.5116 96.7955 33.5862 99.4772 33.5862C101.642 33.5862 102.894 32.2631 103.412 31.4939L101.803 30.4205C101.267 31.2075 100.533 31.7259 99.4772 31.7259C98.4227 31.7259 97.6713 31.243 97.1884 30.2962L103.501 27.6844L103.287 27.1483ZM52.9952 25.5932V27.5956H57.787C57.6439 28.7222 57.2687 29.5447 56.697 30.1164C55.9988 30.8146 54.9077 31.5838 52.9952 31.5838C50.0437 31.5838 47.7372 29.2051 47.7372 26.2547C47.7372 23.3032 50.0437 20.9256 52.9952 20.9256C54.5869 20.9256 55.7491 21.5517 56.6071 22.3564L58.0201 20.9434C56.8214 19.799 55.2307 18.9221 52.9952 18.9221C48.9537 18.9221 45.556 22.2132 45.556 26.2547C45.556 30.2962 48.9537 33.5862 52.9952 33.5862C55.1763 33.5862 56.8214 32.8703 58.1089 31.5294C59.4332 30.2063 59.8439 28.3471 59.8439 26.8441C59.8439 26.379 59.8083 25.9506 59.7362 25.5932H52.9952ZM65.2928 31.7259C63.862 31.7259 62.6277 30.5459 62.6277 28.8654C62.6277 27.166 63.862 26.0039 65.2928 26.0039C66.7225 26.0039 67.9568 27.166 67.9568 28.8654C67.9568 30.5459 66.7225 31.7259 65.2928 31.7259ZM65.2928 24.1446C62.681 24.1446 60.5531 26.1293 60.5531 28.8654C60.5531 31.5838 62.681 33.5862 65.2928 33.5862C67.9035 33.5862 70.0314 31.5838 70.0314 28.8654C70.0314 26.1293 67.9035 24.1446 65.2928 24.1446ZM75.6302 31.7259C74.1994 31.7259 72.9651 30.5459 72.9651 28.8654C72.9651 27.166 74.1994 26.0039 75.6302 26.0039C77.0609 26.0039 78.2941 27.166 78.2941 28.8654C78.2941 30.5459 77.0609 31.7259 75.6302 31.7259ZM75.6302 24.1446C73.0195 24.1446 70.8916 26.1293 70.8916 28.8654C70.8916 31.5838 73.0195 33.5862 75.6302 33.5862C78.2409 33.5862 80.3687 31.5838 80.3687 28.8654C80.3687 26.1293 78.2409 24.1446 75.6302 24.1446Z" fill="white"/>
<path d="M11.5825 8.36721C11.2606 8.70909 11.0697 9.23967 11.0697 9.92675V34.4753C11.0697 35.1635 11.2606 35.693 11.5825 36.0349L11.6646 36.1148L25.4174 22.3631V22.201V22.0379L11.6646 8.28618L11.5825 8.36721Z" fill="url(#paint0_linear)"/>
<path d="M25.4174 22.0379V22.201V22.3631L30.0005 26.9496L30.1049 26.8908L35.5361 23.805C37.0867 22.9225 37.0867 21.4795 35.5361 20.5993L30.1049 17.5124L30.0017 17.4536L25.4174 22.0379Z" fill="url(#paint1_linear)"/>
<path d="M11.5826 36.0349C12.0943 36.5754 12.939 36.6431 13.8903 36.1037L30.105 26.8896L25.4175 22.201L11.5826 36.0349Z" fill="url(#paint2_linear)"/>
<path d="M11.5826 8.3672L25.4175 22.201L30.105 17.5124L13.8903 8.29949C13.444 8.0453 13.0211 7.92542 12.646 7.92542C12.2197 7.92542 11.8545 8.07971 11.5826 8.3672Z" fill="url(#paint3_linear)"/>
<g opacity="0.199997">
<g opacity="0.199997">
<path opacity="0.199997" d="M30.0017 26.7863L13.8902 35.9404C12.9889 36.4532 12.1831 36.4188 11.6658 35.9526L11.5837 36.0359L11.6658 36.1158V36.1147C12.1831 36.5809 12.9889 36.6153 13.8902 36.1025L30.105 26.8895L30.0017 26.7863Z" fill="black"/>
</g>
</g>
<g opacity="0.119995">
<g opacity="0.119995">
<path opacity="0.119995" d="M11.5832 35.8731C11.2602 35.5312 11.0693 35.0006 11.0693 34.3136V34.4756C11.0693 35.1627 11.2602 35.6933 11.5832 36.0352L11.6664 35.953L11.5832 35.8731Z" fill="black"/>
</g>
</g>
<g opacity="0.119995">
<g opacity="0.119995">
<path opacity="0.119995" d="M35.5362 23.6415L30.0017 26.7861L30.105 26.8893L35.5362 23.8035C36.312 23.3629 36.6994 22.7823 36.6994 22.2018C36.6339 22.7268 36.2399 23.2419 35.5362 23.6415Z" fill="black"/>
</g>
</g>
<g opacity="0.25">
<g opacity="0.25">
<path opacity="0.25" d="M13.89 8.46176L35.5359 20.7605C36.2397 21.1601 36.6348 21.6751 36.6992 22.2012C36.7003 21.6207 36.3118 21.0391 35.5359 20.5984L13.89 8.2997C12.3382 7.41837 11.0695 8.14985 11.0695 9.92695V10.089C11.0695 8.31302 12.3382 7.58042 13.89 8.46176Z" fill="white"/>
</g>
</g>
<path d="M46.74 13.6116H47.921C48.6902 13.6116 49.2996 13.3918 49.7491 12.9511C50.1987 12.5105 50.4229 11.8933 50.4229 11.0997C50.4229 10.3127 50.1987 9.69773 49.7491 9.25374C49.2996 8.81085 48.6902 8.58885 47.921 8.58885H46.74V13.6116ZM45.8853 14.4296V7.76968H47.921C48.9444 7.76968 49.7636 8.07826 50.3774 8.69541C50.9912 9.31257 51.2976 10.114 51.2976 11.0997C51.2976 12.0864 50.9912 12.8878 50.3774 13.5039C49.7636 14.1222 48.9444 14.4296 47.921 14.4296H45.8853Z" fill="white"/>
<path d="M46.74 13.6116H47.921C48.6902 13.6116 49.2996 13.3918 49.7491 12.9511C50.1987 12.5105 50.4229 11.8933 50.4229 11.0997C50.4229 10.3127 50.1987 9.69773 49.7491 9.25374C49.2996 8.81085 48.6902 8.58885 47.921 8.58885H46.74V13.6116ZM45.8853 14.4296V7.76968H47.921C48.9444 7.76968 49.7636 8.07825 50.3774 8.69541C50.9912 9.31257 51.2976 10.114 51.2976 11.0997C51.2976 12.0864 50.9912 12.8878 50.3774 13.5039C49.7636 14.1222 48.9444 14.4296 47.921 14.4296H45.8853Z" stroke="white" stroke-width="0.266667" stroke-miterlimit="10"/>
<path d="M52.4993 7.77001H53.3551V14.43H52.4993V7.77001Z" fill="white" stroke="white" stroke-width="0.266667" stroke-miterlimit="10"/>
<path d="M56.7581 14.5785C56.2742 14.5785 55.8024 14.4209 55.3407 14.1045C54.8778 13.7882 54.5748 13.3453 54.4327 12.7736L55.2141 12.4584C55.3074 12.8236 55.4972 13.1322 55.7858 13.383C56.0755 13.6339 56.3985 13.7604 56.7581 13.7604C57.13 13.7604 57.4486 13.6627 57.7116 13.4674C57.9758 13.272 58.1068 13.0067 58.1068 12.6715C58.1068 12.2997 57.9758 12.0133 57.7116 11.8113C57.4486 11.6104 57.0312 11.4228 56.4607 11.2485C55.8713 11.0631 55.425 10.8223 55.1209 10.5281C54.8179 10.2329 54.6647 9.85659 54.6647 9.39705C54.6647 8.91975 54.8545 8.50462 55.233 8.15164C55.6115 7.79866 56.1044 7.62106 56.7115 7.62106C57.2765 7.62106 57.7349 7.76203 58.0879 8.04397C58.442 8.32702 58.6718 8.63449 58.7761 8.9697L57.9958 9.29493C57.9392 9.08514 57.8015 8.88867 57.5818 8.70886C57.362 8.53015 57.0778 8.44024 56.7304 8.44024C56.4018 8.44024 56.121 8.53126 55.889 8.71441C55.6559 8.89755 55.5394 9.1251 55.5394 9.39705C55.5394 9.64569 55.647 9.85548 55.8602 10.0253C56.0755 10.1962 56.3896 10.3494 56.8048 10.486C57.1333 10.5914 57.4075 10.6935 57.6284 10.7934C57.8482 10.8922 58.0724 11.0243 58.2977 11.1886C58.5241 11.3529 58.694 11.5571 58.8094 11.8024C58.9237 12.0477 58.9815 12.3308 58.9815 12.6538C58.9815 12.9757 58.9149 13.2643 58.7817 13.5184C58.6485 13.7726 58.4709 13.9747 58.2511 14.1234C58.0302 14.2721 57.7949 14.3854 57.5396 14.4619C57.2854 14.5396 57.0245 14.5785 56.7581 14.5785Z" fill="white"/>
<path d="M56.7581 14.5785C56.2742 14.5785 55.8024 14.4209 55.3407 14.1045C54.8778 13.7882 54.5748 13.3453 54.4327 12.7736L55.2141 12.4584C55.3074 12.8236 55.4972 13.1322 55.7858 13.383C56.0755 13.6339 56.3985 13.7604 56.7581 13.7604C57.13 13.7604 57.4486 13.6627 57.7116 13.4674C57.9758 13.272 58.1068 13.0067 58.1068 12.6715C58.1068 12.2997 57.9758 12.0133 57.7116 11.8113C57.4486 11.6104 57.0312 11.4228 56.4607 11.2485C55.8713 11.0631 55.425 10.8223 55.1209 10.5281C54.8179 10.2329 54.6647 9.85659 54.6647 9.39705C54.6647 8.91975 54.8545 8.50462 55.233 8.15164C55.6115 7.79866 56.1044 7.62106 56.7115 7.62106C57.2765 7.62106 57.7349 7.76203 58.0879 8.04397C58.442 8.32702 58.6718 8.63449 58.7761 8.9697L57.9958 9.29493C57.9392 9.08514 57.8015 8.88867 57.5818 8.70886C57.362 8.53015 57.0778 8.44024 56.7304 8.44024C56.4018 8.44024 56.121 8.53126 55.889 8.71441C55.6559 8.89755 55.5394 9.1251 55.5394 9.39705C55.5394 9.64569 55.647 9.85548 55.8602 10.0253C56.0755 10.1962 56.3896 10.3494 56.8048 10.486C57.1333 10.5914 57.4075 10.6935 57.6284 10.7934C57.8482 10.8922 58.0724 11.0243 58.2977 11.1886C58.5241 11.3529 58.694 11.5571 58.8094 11.8024C58.9237 12.0477 58.9815 12.3308 58.9815 12.6538C58.9815 12.9757 58.9149 13.2643 58.7817 13.5184C58.6485 13.7726 58.4709 13.9747 58.2511 14.1234C58.0302 14.2721 57.7949 14.3854 57.5396 14.4619C57.2854 14.5396 57.0245 14.5785 56.7581 14.5785Z" stroke="white" stroke-width="0.266667" stroke-miterlimit="10"/>
<path d="M61.0645 10.9135H62.4975C62.8572 10.9135 63.1458 10.7936 63.3622 10.5517C63.5798 10.3097 63.6874 10.0433 63.6874 9.75135C63.6874 9.45942 63.5798 9.19302 63.3622 8.95104C63.1458 8.70907 62.8572 8.58808 62.4975 8.58808H61.0645V10.9135ZM61.0645 14.43H60.2098V7.77001H62.4787C63.0425 7.77001 63.532 7.9576 63.9439 8.33278C64.3568 8.70796 64.5621 9.18081 64.5621 9.75135C64.5621 10.3219 64.3568 10.7947 63.9439 11.1688C63.532 11.5451 63.0425 11.7327 62.4787 11.7327H61.0645V14.43Z" fill="white"/>
<path d="M61.0645 10.9135H62.4975C62.8572 10.9135 63.1458 10.7936 63.3622 10.5517C63.5798 10.3097 63.6874 10.0433 63.6874 9.75135C63.6874 9.45942 63.5798 9.19302 63.3622 8.95104C63.1458 8.70907 62.8572 8.58808 62.4975 8.58808H61.0645V10.9135ZM61.0645 14.43H60.2098V7.77001H62.4787C63.0425 7.77001 63.532 7.9576 63.9439 8.33278C64.3568 8.70796 64.5621 9.18081 64.5621 9.75135C64.5621 10.3219 64.3568 10.7947 63.9439 11.1688C63.532 11.5451 63.0425 11.7327 62.4787 11.7327H61.0645V14.43Z" stroke="white" stroke-width="0.266667" stroke-miterlimit="10"/>
<path d="M66.8358 13.0116C67.3286 13.5111 67.9314 13.7597 68.6451 13.7597C69.3577 13.7597 69.9615 13.5111 70.4544 13.0116C70.9472 12.5121 71.1947 11.875 71.1947 11.1002C71.1947 10.3254 70.9472 9.68719 70.4544 9.1888C69.9615 8.6893 69.3577 8.43956 68.6451 8.43956C67.9314 8.43956 67.3286 8.6893 66.8358 9.1888C66.3441 9.68719 66.0966 10.3254 66.0966 11.1002C66.0966 11.875 66.3441 12.5121 66.8358 13.0116ZM71.0871 13.5688C70.4322 14.2426 69.6186 14.5789 68.6451 14.5789C67.6716 14.5789 66.858 14.2426 66.2042 13.5688C65.5493 12.8962 65.223 12.0737 65.223 11.1002C65.223 10.1267 65.5493 9.30313 66.2042 8.63047C66.858 7.95782 67.6716 7.62038 68.6451 7.62038C69.613 7.62038 70.4244 7.95893 71.0826 8.63491C71.7398 9.3109 72.0683 10.1323 72.0683 11.1002C72.0683 12.0737 71.7409 12.8962 71.0871 13.5688Z" fill="white"/>
<path d="M66.8358 13.0116C67.3286 13.5111 67.9314 13.7597 68.6451 13.7597C69.3577 13.7597 69.9615 13.5111 70.4544 13.0116C70.9472 12.5121 71.1947 11.875 71.1947 11.1002C71.1947 10.3254 70.9472 9.68719 70.4544 9.1888C69.9615 8.6893 69.3577 8.43956 68.6451 8.43956C67.9314 8.43956 67.3286 8.6893 66.8358 9.1888C66.3441 9.68719 66.0966 10.3254 66.0966 11.1002C66.0966 11.875 66.3441 12.5121 66.8358 13.0116ZM71.0871 13.5688C70.4322 14.2426 69.6186 14.5789 68.6451 14.5789C67.6716 14.5789 66.858 14.2426 66.2042 13.5688C65.5493 12.8962 65.223 12.0737 65.223 11.1002C65.223 10.1267 65.5493 9.30313 66.2042 8.63047C66.858 7.95782 67.6716 7.62038 68.6451 7.62038C69.613 7.62038 70.4244 7.95893 71.0826 8.63491C71.7398 9.3109 72.0683 10.1323 72.0683 11.1002C72.0683 12.0737 71.7409 12.8962 71.0871 13.5688Z" stroke="white" stroke-width="0.266667" stroke-miterlimit="10"/>
<path d="M73.2691 14.43V7.77001H74.3114L77.547 12.9503H77.5848L77.547 11.6672V7.77001H78.4039V14.43H77.5104L74.1238 8.99766H74.0872L74.1238 10.2819V14.43H73.2691Z" fill="white"/>
<path d="M73.2691 14.43V7.77001H74.3114L77.547 12.9503H77.5848L77.547 11.6672V7.77001H78.4039V14.43H77.5104L74.1238 8.99766H74.0872L74.1238 10.2819V14.43H73.2691Z" stroke="white" stroke-width="0.266667" stroke-miterlimit="10"/>
<path d="M80.729 7.24921H79.9842L80.4692 6.05819H81.3994L80.729 7.24921ZM79.9287 7.7698H80.7845V14.4297H79.9287V7.7698Z" fill="white"/>
<path d="M80.729 7.24921H79.9842L80.4692 6.05819H81.3994L80.729 7.24921ZM79.9287 7.7698H80.7845V14.4297H79.9287V7.7698Z" stroke="white" stroke-width="0.266667" stroke-miterlimit="10"/>
<path d="M83.9562 14.43L81.613 7.77001H82.561L84.3847 13.1746H84.4213L86.3194 7.77001H87.2673L84.8498 14.43H83.9562Z" fill="white"/>
<path d="M83.9562 14.43L81.613 7.77001H82.561L84.3847 13.1746H84.4213L86.3194 7.77001H87.2673L84.8498 14.43H83.9562Z" stroke="white" stroke-width="0.266667" stroke-miterlimit="10"/>
<path d="M92.124 8.58841H89.0915V10.6996H91.8265V11.4999H89.0915V13.6111H92.124V14.4303H88.2357V7.77035H92.124V8.58841Z" fill="white"/>
<path d="M92.124 8.58841H89.0915V10.6996H91.8265V11.4999H89.0915V13.6111H92.124V14.4303H88.2357V7.77035H92.124V8.58841Z" stroke="white" stroke-width="0.266667" stroke-miterlimit="10"/>
<path d="M93.4634 14.43V7.77001H94.3192V13.6119H97.2019V14.43H93.4634Z" fill="white"/>
<path d="M93.4634 14.43V7.77001H94.3192V13.6119H97.2019V14.43H93.4634Z" stroke="white" stroke-width="0.266667" stroke-miterlimit="10"/>
<path d="M100.514 14.43V7.77001H101.556L104.793 12.9503H104.829L104.793 11.6672V7.77001H105.649V14.43H104.755L101.37 8.99766H101.332L101.37 10.2819V14.43H100.514Z" fill="white"/>
<path d="M100.514 14.43V7.77001H101.556L104.793 12.9503H104.829L104.793 11.6672V7.77001H105.649V14.43H104.755L101.37 8.99766H101.332L101.37 10.2819V14.43H100.514Z" stroke="white" stroke-width="0.266667" stroke-miterlimit="10"/>
<path d="M108.367 13.0116C108.86 13.5111 109.463 13.7597 110.177 13.7597C110.889 13.7597 111.493 13.5111 111.986 13.0116C112.479 12.5121 112.726 11.875 112.726 11.1002C112.726 10.3254 112.479 9.68719 111.986 9.1888C111.493 8.6893 110.889 8.43956 110.177 8.43956C109.463 8.43956 108.86 8.6893 108.367 9.1888C107.876 9.68719 107.628 10.3254 107.628 11.1002C107.628 11.875 107.876 12.5121 108.367 13.0116ZM112.619 13.5688C111.964 14.2426 111.15 14.5789 110.177 14.5789C109.203 14.5789 108.39 14.2426 107.736 13.5688C107.081 12.8962 106.755 12.0737 106.755 11.1002C106.755 10.1267 107.081 9.30313 107.736 8.63047C108.39 7.95782 109.203 7.62038 110.177 7.62038C111.145 7.62038 111.956 7.95893 112.614 8.63491C113.271 9.3109 113.6 10.1323 113.6 11.1002C113.6 12.0737 113.272 12.8962 112.619 13.5688Z" fill="white"/>
<path d="M108.367 13.0116C108.86 13.5111 109.463 13.7597 110.177 13.7597C110.889 13.7597 111.493 13.5111 111.986 13.0116C112.479 12.5121 112.726 11.875 112.726 11.1002C112.726 10.3254 112.479 9.68719 111.986 9.1888C111.493 8.6893 110.889 8.43956 110.177 8.43956C109.463 8.43956 108.86 8.6893 108.367 9.1888C107.876 9.68719 107.628 10.3254 107.628 11.1002C107.628 11.875 107.876 12.5121 108.367 13.0116ZM112.619 13.5688C111.964 14.2426 111.15 14.5789 110.177 14.5789C109.203 14.5789 108.39 14.2426 107.736 13.5688C107.081 12.8962 106.755 12.0737 106.755 11.1002C106.755 10.1267 107.081 9.30313 107.736 8.63047C108.39 7.95782 109.203 7.62038 110.177 7.62038C111.145 7.62038 111.956 7.95893 112.614 8.63491C113.271 9.3109 113.6 10.1323 113.6 11.1002C113.6 12.0737 113.272 12.8962 112.619 13.5688Z" stroke="white" stroke-width="0.266667" stroke-miterlimit="10"/>
<defs>
<linearGradient id="paint0_linear" x1="24.1972" y1="9.6678" x2="5.56893" y2="28.2961" gradientUnits="userSpaceOnUse">
<stop stop-color="#00A0FF"/>
<stop offset="0.00657445" stop-color="#00A1FF"/>
<stop offset="0.2601" stop-color="#00BEFF"/>
<stop offset="0.5122" stop-color="#00D2FF"/>
<stop offset="0.7604" stop-color="#00DFFF"/>
<stop offset="1" stop-color="#00E3FF"/>
</linearGradient>
<linearGradient id="paint1_linear" x1="37.5556" y1="22.2015" x2="10.6972" y2="22.2015" gradientUnits="userSpaceOnUse">
<stop stop-color="#FFE000"/>
<stop offset="0.4087" stop-color="#FFBD00"/>
<stop offset="0.7754" stop-color="#FFA500"/>
<stop offset="1" stop-color="#FF9C00"/>
</linearGradient>
<linearGradient id="paint2_linear" x1="27.5575" y1="24.7486" x2="2.29604" y2="50.0101" gradientUnits="userSpaceOnUse">
<stop stop-color="#FF3A44"/>
<stop offset="1" stop-color="#C31162"/>
</linearGradient>
<linearGradient id="paint3_linear" x1="8.0998" y1="0.195637" x2="19.3801" y2="11.476" gradientUnits="userSpaceOnUse">
<stop stop-color="#32A071"/>
<stop offset="0.0685" stop-color="#2DA771"/>
<stop offset="0.4762" stop-color="#15CF74"/>
<stop offset="0.8009" stop-color="#06E775"/>
<stop offset="1" stop-color="#00F076"/>
</linearGradient>
</defs>
</svg>
